{"title":"Home Run 2013 LIMITED 480p BRRiP XVID AC3-PAYBACK","uid":9789812,"size":1480266314,"categoryP":"video","categoryS":"movies","magnet":"?xt=urn:btih:0ddc540335aea1242d977c8345bf8d1adc88126c&amp;dn=Home+Run+2013+LIMITED+480p+BRRiP+XVID+AC3-PAYBACK&amp;tr=udp%3A%2F%2Ftracker.openbittorrent.com%3A80&amp;tr=udp%3A%2F%2Fopen.demonii.com%3A1337&amp;tr=udp%3A%2F%2Ftracker.coppersurfer.tk%3A6969&amp;tr=udp%3A%2F%2Fexodus.desync.com%3A6969","seeders":1,"leechers":0,"uploader":"0ks0","files":-1,"time":1395188911,"description":" &lt;a href=&quot;http://www.imdb.com/title/tt2051894/&quot; rel=&quot;nofollow&quot; target=&quot;_NEW&quot;&gt;http://www.imdb.com/title/tt2051894/&lt;/a&gt;\n\nA pro ball player with a substance abuse problem is forced into rehab in his hometown, finding new hope when he gets honest about his checkered past, and takes on coaching duties for a misfit Little League team.\n\nGenre: Drama | Sport\n\n\nSCREENSHOTS\n &lt;a href=&quot;\nhttp://i.imgur.com/l0AiTn7.png&quot; rel=&quot;nofollow&quot; target=&quot;_NEW&quot;&gt;\nhttp://i.imgur.com/l0AiTn7.png&lt;/a&gt; &lt;a href=&quot;\nhttp://i.imgur.com/BECNTae.png&quot; rel=&quot;nofollow&quot; target=&quot;_NEW&quot;&gt;\nhttp://i.imgur.com/BECNTae.png&lt;/a&gt; &lt;a href=&quot;\nhttp://i.imgur.com/XeVuoJi.png&quot; rel=&quot;nofollow&quot; target=&quot;_NEW&quot;&gt;\nhttp://i.imgur.com/XeVuoJi.png&lt;/a&gt; &lt;a href=&quot;\nhttp://i.imgur.com/5gWnhps.png&quot; rel=&quot;nofollow&quot; target=&quot;_NEW&quot;&gt;\nhttp://i.imgur.com/5gWnhps.png&lt;/a&gt;\n\nFormat                                   : AVI\nFormat/Info                              : Audio Video Interleave\nFile size                                : 1.38 GiB\nDuration                                 : 1h 53mn\nOverall bit rate                         : 1 743 Kbps\nWriting application                      : VirtualDubMod 1.5.10.2 (build 2542/release)\nWriting library                          : VirtualDub build 34807/release\n\nVideo\nID                                       : 0\nFormat                                   : MPEG-4 Visual\nFormat profile                           : Advanced Simple@L5\nFormat settings, BVOP                    : 2\nFormat settings, QPel                    : No\nFormat settings, GMC                     : No warppoints\nFormat settings, Matrix                  : Default (H.263)\nMuxing mode                              : Packed bitstream\nCodec ID                                 : XVID\nCodec ID/Hint                            : XviD\nDuration                                 : 1h 53mn\nBit rate                                 : 1 349 Kbps\nWidth                                    : 720 pixels\nHeight                                   : 384 pixels\nDisplay aspect ratio                     : 1.85:1\nFrame rate                               : 23.976 fps\nColor space                              : YUV\nChroma subsampling                       : 4:2:0\nBit depth                                : 8 bits\nScan type                                : Progressive\nCompression mode                         : Lossy\nBits/(Pixel*Frame)                       : 0.204\nStream size                              : 1.07 GiB (77%)\nWriting library                          : XviD 64\n\nAudio\nID                                       : 1\nFormat                                   : AC-3\nFormat/Info                              : Audio Coding 3\nMode extension                           : CM (complete main)\nFormat settings, Endianness              : Big\nCodec ID                                 : 2000\nDuration                                 : 1h 53mn\nBit rate mode                            : Constant\nBit rate                                 : 384 Kbps\nChannel(s)                               : 6 channels\nChannel positions                        : Front: L C R, Side: L R, LFE\nSampling rate                            : 48.0 KHz\nBit depth                                : 16 bits\nCompression mode                         : Lossy\nStream size                              : 311 MiB (22%)\nAlignment                                : Split accross interleaves\nInterleave, duration                     : 42 ms (1.00 video frame)\nInterleave, preload duration             : 500 ms\n\nSOURCE: iNFAMOUS BluRay (Respect!)\n\n\n...PAYBACK will rise from the shadows...","torrent":{"xt":"urn:btih:0ddc540335aea1242d977c8345bf8d1adc88126c","amp;dn":"Home+Run+2013+LIMITED+480p+BRRiP+XVID+AC3-PAYBACK","amp;tr":["udp%3A%2F%2Ftracker.openbittorrent.com%3A80","udp%3A%2F%2Fopen.demonii.com%3A1337","udp%3A%2F%2Ftracker.coppersurfer.tk%3A6969","udp%3A%2F%2Fexodus.desync.com%3A6969"],"infoHash":"0ddc540335aea1242d977c8345bf8d1adc88126c","infoHashBuffer":{"type":"Buffer","data":[13,220,84,3,53,174,161,36,45,151,124,131,69,191,141,26,220,136,18,108]},"announce":[],"urlList":[]}}